<?xml version="1.0" encoding="utf-8"?>
<!-- Generator: Adobe Illustrator 22.0.1, SVG Export Plug-In . SVG Version: 6.00 Build 0)  -->
<svg version="1.1" xmlns="http://www.w3.org/2000/svg" xmlns:xlink="http://www.w3.org/1999/xlink" x="0px" y="0px"
	 viewBox="0 0 150 80" style="enable-background:new 0 0 150 80;" xml:space="preserve">
<style type="text/css">
	.st0{fill:#FFFFFF;}
</style>
<g id="Layer_2">
</g>
<g id="Layer_1">
	<g>
		<path class="st0" d="M13.5,13c-13.7,13.7-13.7,35.9,0,49.6L63.1,13C49.4-0.7,27.2-0.7,13.5,13z"/>
		<path class="st0" d="M59.5,68.2c13.7-13.7,13.7-35.9,0-49.6L10,68.2C23.6,81.9,45.8,81.9,59.5,68.2z"/>
		<path class="st0" d="M73.5,37.4c0,19.4,15.7,35.1,35.1,35.1V2.3C89.2,2.3,73.5,18,73.5,37.4z"/>
		<path class="st0" d="M145,43.9c0-19.4-15.7-35.1-35.1-35.1v70.1C129.3,78.9,145,63.2,145,43.9z"/>
	</g>
</g>
</svg>
